<?xml version="1.0" encoding="utf-8"?>
<!-- Generator: Adobe Illustrator 24.0.1, SVG Export Plug-In . SVG Version: 6.00 Build 0)  -->
<svg version="1.1" id="Layer_1" xmlns="http://www.w3.org/2000/svg" xmlns:xlink="http://www.w3.org/1999/xlink" x="0px" y="0px"
	 viewBox="0 0 130 81" style="enable-background:new 0 0 130 81;" xml:space="preserve">
<style type="text/css">
	.st0{enable-background:new    ;}
	.st1{fill:#FFFFFF;}
</style>
<g transform="translate(-184 -226)">
	<g class="st0">
		<path class="st1" d="M220.7,230.3c2.7,0,5.1,1,7,3c2,2,3,4.3,3,7v53.4c0,1.8-0.4,3.4-1.3,5c-0.9,1.6-2.1,2.8-3.7,3.7
			c-1.6,0.9-3.2,1.3-5,1.3H194c-2.8,0-5.2-1-7.1-3c-1.9-2-2.9-4.3-2.9-7v-53.4c0-2.7,1-5.1,2.9-7c1.9-2,4.3-3,7.1-3H220.7z
			 M224.8,287v-46.7h-35V287H224.8z M214,297v-3.3h-13.3v3.3H214z"/>
	</g>
	<g class="st0">
		<path class="st1" d="M309.7,293.7c0,2.7-1,5.1-3,7c-2,2-4.3,3-7,3h-53.4c-1.8,0-3.4-0.4-5-1.3c-1.6-0.9-2.8-2.1-3.7-3.7
			c-0.9-1.6-1.3-3.2-1.3-5V267c0-2.8,1-5.2,3-7.1c2-1.9,4.3-2.9,7-2.9h53.4c2.7,0,5.1,1,7,2.9c2,1.9,3,4.3,3,7.1V293.7z M243,287
			h3.3v-13.3H243V287z M253,297.8h46.7v-35H253V297.8z"/>
	</g>
	<g class="st0">
		<path class="st1" d="M249,243.8l2.1-2.1l5.3,5.2v-13.3h-14.6v-2.9h17.5v16.3l5.3-5.2l2.1,2.1l-8.8,8.8L249,243.8z"/>
	</g>
</g>
</svg>
