<svg xmlns="http://www.w3.org/2000/svg" xmlns:xlink="http://www.w3.org/1999/xlink" viewBox="0 0 46.26 51.97"><defs><style>.cls-1{fill:#ccc;}.cls-2{fill:url(#linear-gradient);}.cls-3{fill:#af0e0e;}.cls-4{fill:#e20c0c;}.cls-5{fill:#fff;}.cls-6{fill:url(#linear-gradient-2);}</style><linearGradient id="linear-gradient" x1="18.14" y1="35.25" x2="28.42" y2="35.19" gradientUnits="userSpaceOnUse"><stop offset="0.41" stop-color="#b3b3b3"/><stop offset="0.56" stop-color="#adadad"/><stop offset="0.76" stop-color="#9d9d9d"/><stop offset="0.99" stop-color="#818181"/><stop offset="1" stop-color="gray"/></linearGradient><linearGradient id="linear-gradient-2" x1="14.08" y1="12.81" x2="37.5" y2="12.68" gradientUnits="userSpaceOnUse"><stop offset="0.41" stop-color="#b60000" stop-opacity="0"/><stop offset="0.56" stop-color="#ad0000" stop-opacity="0.06"/><stop offset="0.76" stop-color="#940000" stop-opacity="0.22"/><stop offset="0.98" stop-color="#6c0000" stop-opacity="0.48"/><stop offset="1" stop-color="#680000" stop-opacity="0.5"/></linearGradient></defs><title>Asset 1</title><g id="Layer_2" data-name="Layer 2"><g id="obstacles"><g id="_mushroom" data-name="
mushroom"><path class="cls-1" d="M17,23.08a75,75,0,0,1-.54,9.46c-.16,1.58-.39,3.15-.62,4.73A14.88,14.88,0,0,1,14.27,42a5.58,5.58,0,0,0,0,5.6c1.52,2.67,4.95,4.3,8.6,4.37V18.48C19.59,18.58,17,20.61,17,23.08Z"/><path class="cls-2" d="M32,42a14.64,14.64,0,0,1-1.6-4.73c-.23-1.58-.46-3.15-.62-4.73a75,75,0,0,1-.55-9.46V23c0-2.51-2.8-4.52-6.17-4.49h-.18V52a12.14,12.14,0,0,0,4-.56C31.77,49.87,34.05,45.66,32,42Z"/><path class="cls-3" d="M45.17,18.13l-7.52-7.85L30.13,2.43C28.53.75,25.68,0,22.87,0V25.43h15.3C44.39,25.43,48.28,21.37,45.17,18.13Z"/><path class="cls-4" d="M16.13,2.43,8.61,10.28,1.09,18.13c-3.11,3.24.78,7.3,7,7.3H22.87V0C20.24.05,17.64.86,16.13,2.43Z"/><circle class="cls-5" cx="10.65" cy="16.21" r="1.54"/><circle class="cls-5" cx="16.65" cy="9.3" r="1.54"/><circle class="cls-5" cx="28.6" cy="21.85" r="1.54"/><circle class="cls-5" cx="19.74" cy="17.37" r="1.54"/><circle class="cls-5" cx="6.17" cy="22.53" r="1.54"/><circle class="cls-5" cx="39.24" cy="20.3" r="1.54"/><circle class="cls-5" cx="26.66" cy="15.83" r="1.54"/><circle class="cls-5" cx="26.66" cy="5.68" r="1.54"/><circle class="cls-5" cx="32.75" cy="10.85" r="1.54"/><path class="cls-6" d="M45.17,18.13l-7.52-7.85L30.13,2.43C28.53.75,25.68,0,22.87,0V25.43h15.3C44.39,25.43,48.28,21.37,45.17,18.13Z"/></g></g></g></svg>